#include <avr/pgmspace.h>
#include "../tune.h"

const Tune cerf PROGMEM = {
    NOTE_G4,
    NOTE_C5,
    NOTE_C5,
    NOTE_C5,
    NOTE_C5,
    NOTE_B4,
    NOTE_D5,
    NOTE_PAUSE,
    NOTE_G4,
    NOTE_D5,
    NOTE_D5,
    NOTE_D5,
    NOTE_D5,
    NOTE_C5,
    NOTE_E5,
    NOTE_PAUSE,
    NOTE_G4,
    NOTE_C5,
    NOTE_C5,
    NOTE_C5,
    NOTE_C5,
    NOTE_B4,
    NOTE_D5,
    NOTE_PAUSE,
    NOTE_G4,
    NOTE_G4,
    NOTE_A4,
    NOTE_B4,
    NOTE_C5,
    NOTE_PAUSE,
    NOTE_PAUSE,
    NOTE_G5,
    NOTE_PAUSE,
    NOTE_G5,
    NOTE_PAUSE,
    NOTE_G5,
    NOTE_F5,
    NOTE_A5,
    NOTE_PAUSE,
    NOTE_F5,
    NOTE_F5,
    NOTE_F5,
    NOTE_F5,
    NOTE_F5,
    NOTE_E5,
    NOTE_G5,
    NOTE_PAUSE,
    NOTE_E5,
    NOTE_E5,
    NOTE_E5,
    NOTE_E5,
    NOTE_E5,
    NOTE_D5,
    NOTE_F5,
    NOTE_PAUSE,
    NOTE_G4,
    NOTE_G4,
    NOTE_A4,
    NOTE_B4,
    NOTE_C5,
    0,
};


